<svg xmlns="http://www.w3.org/2000/svg" version="1.1" xmlns:xlink="http://www.w3.org/1999/xlink" viewBox="0 0 200 200"><rect width="200" height="200" fill="url('#gradient')"></rect><defs><linearGradient id="gradient" gradientTransform="rotate(0 0.5 0.5)"><stop offset="0%" stop-color="#d8c1b3"></stop><stop offset="100%" stop-color="#faa898"></stop></linearGradient></defs><g><g fill="#1f0b7f" transform="matrix(2.9386313465783664,0,0,2.9386313465783664,31.849777969198243,120.88334983000429)" stroke="#efcfbb" stroke-width="1"><path d="M5.75 0L1.07 0L1.07-14.22L5.65-14.22Q7.54-14.22 9.04-13.36Q10.55-12.51 11.39-10.95Q12.24-9.39 12.25-7.46L12.25-7.46L12.25-6.81Q12.25-4.85 11.42-3.31Q10.60-1.76 9.10-0.88Q7.60-0.01 5.75 0L5.75 0ZM5.65-11.57L4.50-11.57L4.50-2.64L5.69-2.64Q7.17-2.64 7.96-3.69Q8.75-4.74 8.75-6.81L8.75-6.81L8.75-7.42Q8.75-9.48 7.96-10.53Q7.17-11.57 5.65-11.57L5.65-11.57ZM17.66-14.22L17.66 0L14.24 0L14.24-14.22L17.66-14.22ZM32.08-7.47L32.08-6.82Q32.08-4.74 31.31-3.13Q30.54-1.53 29.12-0.67Q27.70 0.20 25.88 0.20Q24.06 0.20 22.66-0.64Q21.25-1.47 20.46-3.03Q19.68-4.58 19.64-6.59L19.64-6.59L19.64-7.39Q19.64-9.48 20.41-11.08Q21.17-12.68 22.60-13.54Q24.03-14.41 25.86-14.41L25.86-14.41Q27.67-14.41 29.08-13.55Q30.50-12.70 31.28-11.11Q32.07-9.52 32.08-7.47L32.08-7.47ZM28.59-6.76L28.59-7.41Q28.59-9.53 27.89-10.63Q27.18-11.73 25.86-11.73L25.86-11.73Q23.28-11.73 23.13-7.86L23.13-7.86L23.13-6.82Q23.13-4.73 23.82-3.60Q24.51-2.48 25.88-2.48L25.88-2.48Q27.18-2.48 27.88-3.58Q28.58-4.69 28.59-6.76L28.59-6.76ZM41.64 0L39.13-5.02L37.28-5.02L37.28 0L33.85 0L33.85-14.22L39.44-14.22Q41.97-14.22 43.40-13.10Q44.82-11.97 44.82-9.92L44.82-9.92Q44.82-8.44 44.22-7.46Q43.62-6.48 42.34-5.88L42.34-5.88L45.31-0.15L45.31 0L41.64 0ZM37.28-11.57L37.28-7.67L39.44-7.67Q40.42-7.67 40.91-8.18Q41.41-8.69 41.41-9.61Q41.41-10.53 40.91-11.05Q40.41-11.57 39.44-11.57L39.44-11.57L37.28-11.57Z"></path></g></g></svg>